<svg width="45" height="31" viewBox="0 0 45 31" fill="none" xmlns="http://www.w3.org/2000/svg">
<path fill-rule="evenodd" clip-rule="evenodd" d="M26.7501 23.0786C28.3032 24.5528 28.6625 26.8079 27.4655 28.6452C25.9985 30.897 22.7494 31.6685 20.2085 30.3685C17.6676 29.0684 16.797 26.189 18.264 23.9372C19.4572 22.1057 21.8294 21.2534 24.0406 21.6987L30.7626 11.1947C30.9329 10.9286 31.3144 10.8353 31.6146 10.9862L33.2456 11.8059C33.5458 11.9568 33.6512 12.2948 33.4809 12.5609L26.7501 23.0786ZM23.9585 24.6124C25.0048 25.1477 25.3632 26.3333 24.7592 27.2605C24.1551 28.1877 22.8173 28.5054 21.771 27.9701C20.7247 27.4348 20.3663 26.2491 20.9703 25.3219C21.5744 24.3947 22.9122 24.077 23.9585 24.6124Z" fill="#FCE803"/>
<path d="M0.342947 23.4078C0.45208 23.9554 0.587168 24.4995 0.748081 25.0386C0.924653 25.6302 1.63364 25.948 2.29028 25.7587L16.9089 21.5454C17.5653 21.3562 17.906 20.7277 17.8732 20.1167C17.858 19.8343 17.8753 19.5504 17.9256 19.2693C17.9887 18.916 18.1029 18.5727 18.2642 18.2475L18.2668 18.2421C18.4007 17.9732 18.5668 17.7168 18.7631 17.4774C19.1979 16.9471 19.7682 16.5154 20.4273 16.2178C21.0864 15.9202 21.8156 15.7651 22.5554 15.7651C23.0861 15.7651 23.6114 15.8449 24.1093 16C24.435 16.1014 24.8105 15.9969 24.9672 15.7243L25.8184 14.2438C25.9751 13.9712 25.8536 13.6355 25.5345 13.5188C24.5915 13.1741 23.5795 12.9957 22.5554 12.9957C21.3225 12.9957 20.1071 13.2542 19.0086 13.7503C17.9101 14.2463 16.9596 14.9657 16.2349 15.8496C15.5102 16.7336 15.0319 17.7569 14.8391 18.8361C14.8144 18.974 14.7945 19.1124 14.7793 19.2509L3.34886 22.5423C3.04649 20.7948 3.0495 19.0108 3.36354 17.2537C3.84185 14.5774 5.0281 12.0394 6.8253 9.84726C8.62249 7.6551 10.9796 5.87101 13.7039 4.64085C16.4283 3.4107 19.4424 2.7694 22.5 2.7694C25.5576 2.7694 28.5717 3.4107 31.2961 4.64085C34.0204 5.87101 36.3775 7.6551 38.1747 9.84726C39.9719 12.0394 41.1581 14.5774 41.6365 17.2537C41.9505 19.0108 41.9535 20.7948 41.6511 22.5423L32.3567 19.866C32.0665 19.7824 31.7507 19.8967 31.6095 20.1364L30.7294 21.6301C30.5504 21.9339 30.7225 22.3073 31.0903 22.4132L42.7099 25.7591C43.3665 25.9482 44.0753 25.6304 44.2518 25.0389C44.4128 24.4997 44.5479 23.9555 44.6571 23.4078C45.0897 21.2368 45.1144 19.0106 44.723 16.8204C44.1675 13.7125 42.79 10.7652 40.7029 8.21944C38.6158 5.67371 35.8785 3.60187 32.7148 2.1733C29.5511 0.744729 26.0507 -1.63555e-07 22.5 0C18.9493 2.3623e-07 15.4489 0.74473 12.2852 2.1733C9.12149 3.60187 6.38419 5.67371 4.29712 8.21944C2.21005 10.7652 0.832471 13.7125 0.277015 16.8204C-0.114418 19.0106 -0.0897464 21.2368 0.342947 23.4078Z" fill="#FCE803"/>
</svg>
