<svg width="124" height="22" viewBox="0 0 124 22" fill="none" xmlns="http://www.w3.org/2000/svg">
<path d="M6.21 21V2.58H11.1V21H6.21ZM0.27 5.28V0.569998H17.1V5.28H0.27ZM21.4523 13.08V8.46H29.9123V13.08H21.4523ZM21.3623 5.19L23.1923 3.15V18.6L21.2123 16.35H31.5323V21H18.3323V0.569998H31.5323V5.19H21.3623ZM43.0312 21.39C40.8912 21.39 39.0412 20.94 37.4812 20.04C35.9212 19.14 34.7212 17.9 33.8812 16.32C33.0412 14.72 32.6212 12.88 32.6212 10.8C32.6212 9.24 32.8712 7.82 33.3712 6.54C33.8712 5.24 34.5812 4.12 35.5012 3.18C36.4212 2.22 37.5212 1.49 38.8012 0.989998C40.0812 0.469999 41.4912 0.209999 43.0312 0.209999C45.4312 0.209999 47.4212 0.749999 49.0012 1.83C50.5812 2.89 51.7512 4.44 52.5113 6.48L48.1612 8.25C47.5812 7.13 46.8813 6.3 46.0612 5.76C45.2412 5.2 44.2312 4.92 43.0312 4.92C41.9712 4.92 41.0312 5.16 40.2113 5.64C39.3912 6.12 38.7412 6.8 38.2612 7.68C37.8012 8.56 37.5712 9.6 37.5712 10.8C37.5712 12 37.8012 13.04 38.2612 13.92C38.7412 14.8 39.3912 15.48 40.2113 15.96C41.0312 16.42 41.9712 16.65 43.0312 16.65C44.2312 16.65 45.2412 16.38 46.0612 15.84C46.8813 15.3 47.5812 14.47 48.1612 13.35L52.5113 15.12C51.7512 17.16 50.5812 18.72 49.0012 19.8C47.4212 20.86 45.4312 21.39 43.0312 21.39ZM65.9334 21V0.569998H70.8234V21H65.9334ZM53.7534 21V0.569998H58.6134V21H53.7534ZM56.9034 13.35V8.64H67.6134V13.35H56.9034ZM72.2004 21L75.7704 0.569998H80.1504L84.8004 14.22H84.4704L89.1204 0.569998H93.4704L97.0404 21H92.2104L90.8904 12.09C90.7304 10.93 90.5704 9.77 90.4104 8.61C90.2704 7.45 90.1504 6.29 90.0504 5.13H91.4004C91.1004 6.33 90.8104 7.49 90.5304 8.61C90.2504 9.73 89.9204 10.86 89.5404 12L86.5404 20.82H82.7304L79.7004 12C79.3204 10.86 78.9804 9.73 78.6804 8.61C78.4004 7.49 78.1204 6.33 77.8404 5.13H79.2204C79.1004 6.29 78.9704 7.45 78.8304 8.61C78.6904 9.77 78.5304 10.93 78.3504 12.09L77.0304 21H72.2004ZM103.322 21H98.4616V0.569998H103.322V21ZM119.181 21L108.711 6.57L110.661 6.03V21H105.801V0.569998H110.301L120.621 14.88L118.791 15.3V0.569998H123.651V21H119.181Z" fill="#FCE803"/>
</svg>
