<svg width="31" height="31" viewBox="0 0 31 31" fill="none" xmlns="http://www.w3.org/2000/svg">
<path d="M6.13472 9.48971C5.94693 11.0605 5.81515 13.8403 6.99788 15.0236C6.99788 15.0236 6.44111 11.9699 11.4323 8.13853C13.442 6.59618 13.9065 4.49837 13.2048 2.92501C12.8061 2.0337 12.078 1.2974 11.4455 0.783282C11.0765 0.481011 11.3598 -0.0176059 11.8968 0.000478612C15.1453 0.114153 20.4099 0.822034 22.6469 5.22433C23.6287 7.1568 23.7011 9.15385 23.2333 11.1845C22.9368 12.4814 21.8826 15.3646 24.2876 15.7185C26.004 15.9717 26.8342 14.9022 27.2065 14.1323C27.3614 13.8119 27.8984 13.7318 28.1883 13.9876C31.0875 16.5737 31.3346 19.6196 30.735 22.2419C29.5753 27.3107 23.0291 31 16.5257 31C8.40135 31 1.93419 27.3547 0.257275 20.7564C-0.418103 18.0928 -0.0754719 12.8224 5.16283 9.10218C5.55158 8.82316 6.18743 9.07118 6.13472 9.48971Z" fill="#FCE803"/>
</svg>
