<svg width="32" height="35" viewBox="0 0 32 35" fill="none" xmlns="http://www.w3.org/2000/svg">
<path d="M8.20411 21.6645L9.11805 20.4751L8.20411 21.6645ZM4.63132 12.9748L3.17097 13.3174L4.63132 12.9748ZM7.9699 21.4758L8.93762 20.3297L7.9699 21.4758ZM29.3641 13.6276L27.9038 13.285L29.3641 13.6276ZM26.5918 21.0955L25.5296 20.0364L26.5918 21.0955ZM25.4861 21.9864L24.6778 20.7228L25.4861 21.9864ZM29.2637 8.32545L30.3048 7.24559L29.2637 8.32545ZM29.7347 8.93548L28.427 9.67042L29.7347 8.93548ZM3.45701 1.64345C3.26009 0.838768 2.44814 0.346076 1.64345 0.542992C0.838768 0.739908 0.346076 1.55186 0.542992 2.35655L3.45701 1.64345ZM21.5281 19.46C22.3565 19.46 23.0281 18.7884 23.0281 17.96C23.0281 17.1316 22.3565 16.46 21.5281 16.46V19.46ZM13.7168 16.46C12.8884 16.46 12.2168 17.1316 12.2168 17.96C12.2168 18.7884 12.8884 19.46 13.7168 19.46V16.46ZM3.37039 9.1H24.711V6.1H3.37039V9.1ZM17.7313 21.5H17.0743V24.5H17.7313V21.5ZM6.09168 12.6322L4.83074 7.2574L1.91004 7.9426L3.17097 13.3174L6.09168 12.6322ZM17.0743 21.5C14.6607 21.5 12.9819 21.4975 11.6848 21.3435C10.4277 21.1943 9.69427 20.9179 9.11805 20.4751L7.29018 22.854C8.45195 23.7467 9.77622 24.138 11.331 24.3226C12.8458 24.5025 14.7331 24.5 17.0743 24.5V21.5ZM3.17097 13.3174C3.71711 15.6453 4.15337 17.5149 4.6755 18.972C5.20976 20.4629 5.88531 21.6789 7.00218 22.6219L8.93762 20.3297C8.3782 19.8574 7.93856 19.1848 7.49965 17.9599C7.04862 16.7013 6.65374 15.028 6.09168 12.6322L3.17097 13.3174ZM9.11805 20.4751C9.05686 20.4281 8.9967 20.3796 8.93762 20.3297L7.00218 22.6219C7.0964 22.7015 7.19242 22.7789 7.29018 22.854L9.11805 20.4751ZM27.9038 13.285C27.4176 15.3574 27.0762 16.8048 26.6994 17.907C26.3319 18.982 25.9736 19.5911 25.5296 20.0364L27.6541 22.1546C28.5443 21.2618 29.0928 20.1802 29.5381 18.8774C29.9742 17.6018 30.352 15.9842 30.8245 13.9702L27.9038 13.285ZM17.7313 24.5C19.7569 24.5 21.3899 24.5019 22.7111 24.3654C24.0641 24.2256 25.2311 23.9301 26.2944 23.25L24.6778 20.7228C24.1564 21.0563 23.5027 21.2676 22.4028 21.3812C21.2712 21.4981 19.8192 21.5 17.7313 21.5V24.5ZM25.5296 20.0364C25.2703 20.2965 24.9846 20.5265 24.6778 20.7228L26.2944 23.25C26.7856 22.9357 27.2415 22.5684 27.6541 22.1546L25.5296 20.0364ZM24.711 9.1C26.0175 9.1 26.8568 9.10276 27.4697 9.17916C28.0549 9.25211 28.1832 9.36727 28.2226 9.40531L30.3048 7.24559C29.5918 6.55817 28.7105 6.31062 27.8408 6.2022C26.9989 6.09724 25.938 6.1 24.711 6.1V9.1ZM30.8245 13.9702C31.111 12.7488 31.3592 11.7021 31.4547 10.8482C31.5528 9.97125 31.5234 9.05657 31.0423 8.20055L28.427 9.67042C28.4611 9.73102 28.5416 9.90389 28.4733 10.5146C28.4024 11.1484 28.2077 11.9894 27.9038 13.285L30.8245 13.9702ZM28.2226 9.40531C28.3022 9.48201 28.3713 9.57119 28.427 9.67042L31.0423 8.20055C30.8442 7.84819 30.596 7.52629 30.3048 7.24559L28.2226 9.40531ZM4.8274 7.24345L3.45701 1.64345L0.542992 2.35655L1.91338 7.95655L4.8274 7.24345ZM21.5281 16.46H13.7168V19.46H21.5281V16.46Z" fill="#FCE803"/>
<path d="M11.75 33.25C13.5584 33.25 14.75 31.6329 14.75 30C14.75 28.3671 13.5584 26.75 11.75 26.75C9.94158 26.75 8.75 28.3671 8.75 30C8.75 31.6329 9.94158 33.25 11.75 33.25ZM22.25 33.25C24.0584 33.25 25.25 31.6329 25.25 30C25.25 28.3671 24.0584 26.75 22.25 26.75C20.4416 26.75 19.25 28.3671 19.25 30C19.25 31.6329 20.4416 33.25 22.25 33.25Z" fill="#0F161E" stroke="#FCE803" stroke-width="2.5"/>
</svg>
