<svg width="31" height="31" viewBox="0 0 31 31" fill="none" xmlns="http://www.w3.org/2000/svg">
<path d="M2.42188 16.2266V2.42188H11.8672V16.2266H2.42188Z" fill="#FCE803"/>
<path d="M19.1328 7.50781V2.42188H28.5781V7.50781H19.1328Z" fill="#FCE803"/>
<path d="M19.1328 28.5781V14.7734H28.5781V28.5781H19.1328Z" fill="#FCE803"/>
<path d="M2.42188 28.5781V23.4922H11.8672V28.5781H2.42188Z" fill="#FCE803"/>
<path fill-rule="evenodd" clip-rule="evenodd" d="M16.7109 0.96875C16.7109 0.433724 17.1447 0 17.6797 0H30.0312C30.5663 0 31 0.433724 31 0.96875V8.96094C31 9.49596 30.5663 9.92969 30.0312 9.92969H17.6797C17.1447 9.92969 16.7109 9.49596 16.7109 8.96094V0.96875ZM19.1328 2.42188V7.50781H28.5781V2.42188H19.1328ZM16.7109 13.3203C16.7109 12.7853 17.1447 12.3516 17.6797 12.3516H30.0312C30.5663 12.3516 31 12.7853 31 13.3203V30.0312C31 30.5663 30.5663 31 30.0312 31H17.6797C17.1447 31 16.7109 30.5663 16.7109 30.0312V13.3203ZM19.1328 14.7734V28.5781H28.5781V14.7734H19.1328Z" fill="#FCE803"/>
<path fill-rule="evenodd" clip-rule="evenodd" d="M13.3203 0H0.96875C0.433724 0 0 0.433724 0 0.96875V17.6797C0 18.2147 0.433724 18.6484 0.96875 18.6484H13.3203C13.8553 18.6484 14.2891 18.2147 14.2891 17.6797V0.96875C14.2891 0.433725 13.8553 0 13.3203 0ZM2.42188 2.42188V16.2266H11.8672V2.42188H2.42188Z" fill="#FCE803"/>
<path fill-rule="evenodd" clip-rule="evenodd" d="M13.3203 21.0703H0.96875C0.433724 21.0703 0 21.504 0 22.0391V30.0312C0 30.5663 0.433724 31 0.96875 31H13.3203C13.8553 31 14.2891 30.5663 14.2891 30.0312V22.0391C14.2891 21.504 13.8553 21.0703 13.3203 21.0703ZM2.42188 23.4922V28.5781H11.8672V23.4922H2.42188Z" fill="#FCE803"/>
</svg>
